<?xml version="1.0" standalone="no"?>
<!DOCTYPE svg PUBLIC "-//W3C//DTD SVG 20010904//EN"
 "http://www.w3.org/TR/2001/REC-SVG-20010904/DTD/svg10.dtd">
<svg version="1.0" xmlns="http://www.w3.org/2000/svg"
 width="512.000000pt" height="512.000000pt" viewBox="0 0 512.000000 512.000000"
 preserveAspectRatio="xMidYMid meet">
<metadata>
Created by potrace 1.14, written by Peter Selinger 2001-2017
</metadata>
<g transform="translate(0.000000,512.000000) scale(0.100000,-0.100000)"
fill="#000000" stroke="none">
<path d="M1741 5099 c-48 -21 -107 -90 -118 -137 -9 -36 -10 -37 -59 -38 -58
-2 -180 -12 -209 -18 -78 -16 -186 -51 -300 -96 -38 -16 -125 -50 -193 -77
-68 -26 -136 -59 -150 -73 -30 -28 -35 -39 -123 -260 -111 -281 -143 -402
-143 -551 l-1 -96 -44 -13 c-91 -27 -162 -129 -155 -224 8 -101 189 -360 387
-555 73 -72 75 -75 62 -100 -22 -44 -37 -111 -36 -170 1 -187 98 -335 271
-412 47 -20 70 -24 160 -24 120 1 185 20 264 81 l46 35 68 -21 c96 -30 233
-47 340 -43 50 2 92 1 92 -1 0 -21 -268 -718 -319 -831 -10 -22 -40 -89 -67
-150 -26 -60 -58 -126 -70 -146 -54 -87 -67 -196 -35 -297 31 -100 92 -171
189 -219 97 -48 182 -39 197 20 4 16 20 28 56 41 28 9 68 33 89 52 27 24 45
33 62 31 51 -9 66 8 132 145 89 185 93 195 264 616 l25 63 20 -33 c67 -110
140 -211 197 -269 l65 -67 -68 -128 c-37 -71 -129 -252 -205 -402 l-137 -273
0 -97 c0 -84 4 -105 26 -153 35 -73 101 -140 174 -175 52 -24 72 -28 150 -28
79 0 97 3 149 28 102 50 131 89 272 368 69 139 146 289 169 333 224 422 191
373 274 401 87 29 193 81 256 124 26 18 48 30 50 28 4 -4 133 -354 195 -528
67 -190 124 -360 155 -464 41 -137 98 -211 203 -262 49 -23 70 -28 147 -28 77
-1 98 3 146 25 136 64 220 199 212 342 -3 68 -48 223 -139 480 -19 53 -50 143
-70 200 -19 56 -39 111 -44 122 -4 11 -25 65 -45 120 -78 210 -197 514 -253
645 -42 98 -45 112 -47 205 -4 155 -34 258 -108 374 -23 36 -51 86 -62 111
-10 25 -32 60 -49 78 -74 80 -289 224 -478 320 -60 29 -108 56 -108 58 0 2 27
39 60 82 244 316 640 889 707 1023 90 179 23 391 -152 482 -94 49 -160 46
-187 -10 -8 -15 -23 -28 -38 -30 -37 -5 -104 -40 -136 -70 -21 -20 -38 -26
-64 -25 -45 3 -55 -7 -115 -101 -28 -42 -57 -88 -65 -101 -38 -60 -135 -197
-259 -369 -75 -104 -143 -200 -152 -213 l-17 -25 -7 38 c-4 21 -9 49 -12 63
-2 13 -13 49 -23 80 -18 53 -18 56 -1 75 113 124 138 324 61 480 -95 195 -339
292 -540 216 l-55 -21 -90 89 c-144 142 -237 217 -376 301 -121 74 -187 86
-268 49z"/>
</g>
</svg>
